<svg version="1" xmlns="http://www.w3.org/2000/svg" width="1066.667" height="1066.667" viewBox="0 0 800.000000 800.000000"><path d="M344.5 107.2c-23.1 2.1-51.7 10.3-72.9 20.9-11.6 5.8-30.2 17.6-37.6 23.8l-3.5 3 4.5-1.1c2.5-.7 11.7-1.2 20.5-1.2 12.9 0 17.8.4 25.2 2.1 21.7 5.1 38.6 14.7 54.7 31.1 30.6 31.2 39.9 77.6 23.5 118.6-2.2 5.4-3.8 10-3.7 10.1.4.3 56.9-17.2 57.5-17.8.2-.3-.4-4.1-1.4-8.4-1.4-6.1-1.8-11.8-1.8-25.8 0-16.5.3-18.8 2.8-27.9 8.6-31.2 30.4-57.6 59.2-71.9 21.9-10.8 51.3-13.6 76.5-7.2 3 .8 5.5 1.3 5.6 1.2.2-.1-2.5-2.5-5.9-5.2-31.4-25.1-71.8-41.1-112.2-44.4-14.4-1.1-78.3-1.1-91 .1z"/><path d="M293.8 216.9c-16 5.1-28.9 18.1-33.9 34-3.1 9.7-2.9 23.3.3 32.7 6 17.3 19 29.4 36.5 33.9 24.3 6.3 50.6-8.3 59.4-33 3-8.4 3.6-22 1.4-30.5-4.8-18.6-20-33.9-37.5-37.9-7.1-1.6-19.8-1.2-26.2.8zm24.5 25.8c4 3.7.4 11.3-5.3 11.3-6.5 0-9.3-8-4.3-12 3-2.3 6.5-2.1 9.6.7zM452.8 216.9c-21.8 7-36.2 26.9-36.2 50.1 0 39.1 40.5 64 74.6 45.8 7.2-3.8 17.6-14.6 21.1-21.9 14.7-30.4-.8-66-32.4-74.4-7.5-2-20.1-1.8-27.1.4zm15.5 26.3c2.4 2.8 2.1 5.5-.8 8.3-5.4 5.5-14.4.4-11.5-6.5 2.1-5.1 8.6-6.1 12.3-1.8zM790 247.7c-30.7 27.3-77.7 56.5-123.5 76.6-15.7 6.9-38 15.7-39.8 15.7-.4 0-.7-9.1-.7-20.2v-20.2l-6 11.9c-7 14.1-13 22.3-23.7 32.6-10.7 10.1-23.2 18.2-36.2 23.2l-4.3 1.6 4.6 5.2c10 11.1 17.8 25.3 21.9 39.8 2.1 7.5 2.2 8.8 2.5 107.3l.3 99.8H626V502.5l9.2-6c83.5-54.3 141.2-136.9 160.1-229 1.4-6.6 2.8-14.3 3.1-17 .4-2.8.9-6.2 1.2-7.8.3-1.5.2-2.7-.3-2.6-.4 0-4.6 3.4-9.3 7.6zM.4 244.2c4.4 27 7.3 39.7 13.3 58.3 17.6 54.9 48.3 103.8 91.5 146.1 14.5 14.1 34.1 30.6 45.6 38.4l5.1 3.5.1 67.9c0 64.2.1 67.8 1.8 67.1 6.9-2.9 12.1-3.8 25-4.2l14.2-.6.1-81.6c0-99.9.6-118.5 4.3-129.4 3.1-9.3 7.6-18.5 12.2-25l3.4-4.7-2.2-.9c-1.3-.4-8.7-3-16.5-5.7-7.9-2.7-14.3-5.1-14.3-5.5 0-.3 4.2-1.8 9.4-3.4l9.5-2.7-7.2-4.7c-15-9.9-28-23.3-36.3-37.6l-2.9-5-.3 9.7c-.1 5.4-.4 9.8-.5 9.8-1 0-19.7-7.9-31.8-13.5C82.1 301.3 40.3 275 9.8 248.6 5 244.4.8 241 .5 241c-.3 0-.4 1.5-.1 3.2zM297 624.5c0 .2 2.2 1.6 4.8 2.9 6.7 3.4 14.5 10.7 18.8 17.7l3.7 5.9H476l2.1-4.2c3-5.9 13.4-16 19.7-19.2 2.9-1.4 5.2-2.9 5.2-3.1 0-.3-46.3-.5-103-.5-56.6 0-103 .2-103 .5z"/></svg>